#!OML:ASF H:\Terrain\Patient Classification 1\Walking\liu\liu.ASF
:FULLY-SPECIFIED
:DEGREES
129
root 8.10362 16.5653 -5.99659 7.59847 -3.88345 -5.63889
lowerback -3.78913 2.77916 1.58239
upperback -0.0712288 3.56889 3.3621
thorax 1.93071 1.78364 2.76204
lowerneck -21.5467 -4.88606 -13.3114
upperneck 20.0854 -5.84663 13.6861
head 10.8654 -2.10086 6.33239
rclavicle -3.8266e-015 1.43125e-014
rhumerus -16.2184 31.929 -83.2119
rradius 51.1329
rwrist -27.5733
rhand -37.782 -20.505
rfingers 7.12502
rthumb -10.829 -50.2059
lclavicle -3.8266e-015 1.43125e-014
lhumerus -53.2786 13.383 67.8095
lradius 12.4211
lwrist -24.596
lhand -6.90482 -23.7657
lfingers 7.12502
lthumb 18.9624 5.32999
rfemur 10.0444 3.0659 29.3955
rtibia 7.89467
rfoot -12.2502 6.44124
rtoes -18.3781
lfemur -42.6071 1.09119 -12.5427
ltibia 21.4266
lfoot -12.674 7.83824
ltoes -10.2637
130
root 8.12607 16.5446 -5.77538 7.61585 -3.85436 -5.90238
lowerback -3.8294 2.84297 1.91391
upperback -0.0130608 3.6345 3.39181
thorax 2.02964 1.81876 2.61616
lowerneck -21.2054 -4.93453 -13.507
upperneck 19.8076 -5.90589 13.8397
head 10.7216 -2.13691 6.40233
rclavicle 7.35503e-015 1.59028e-014
rhumerus -15.9417 32.0659 -83.0673
rradius 51.7906
rwrist -29.019
rhand -39.6052 -17.8205
rfingers 7.12502
rthumb -12.5872 -47.4213
lclavicle 7.35503e-015 1.59028e-014
lhumerus -54.3453 16.2017 63.7881
lradius 11.6704
lwrist -28.7641
lhand -6.43889 -23.9355
lfingers 7.12502
lthumb 19.4104 5.11566
rfemur 12.0631 3.03823 29.5614
rtibia 5.39446
rfoot -10.771 6.33893
rtoes -18.3347
lfemur -42.7792 0.273047 -11.6399
ltibia 20.4016
lfoot -11.6189 8.15922
ltoes -9.25991
131
root 8.14992 16.5228 -5.55237 7.55877 -3.75137 -5.97267
lowerback -3.65128 2.8109 1.93279
upperback -0.0432116 3.59831 3.46527
thorax 1.89638 1.80095 2.66791
lowerneck -21.0773 -4.90502 -13.678
upperneck 19.7783 -5.83337 13.8896
head 10.6822 -2.11584 6.46143
rclavicle -9.0944e-015 -1.07344e-014
rhumerus -15.1549 29.7798 -82.3078
rradius 51.8616
rwrist -23.5617
rhand -34.4127 -23.8911
rfingers 7.12502
rthumb -7.57792 -53.7354
lclavicle -9.0944e-015 -1.07344e-014
lhumerus -55.738 18.4494 60.2969
lradius 11.1893
lwrist -31.9545
lhand -6.07327 -24.1783
lfingers 7.12502
lthumb 19.7619 4.83708
rfemur 15.6184 2.91477 29.526
rtibia 2.8625e-014
rfoot -7.97088 5.79645
rtoes -18.4572
lfemur -42.9817 -0.694731 -11.0105
ltibia 19.8959
lfoot -11.4931 9.37398
ltoes -9.70304
132
root 8.17672 16.5016 -5.32267 7.41222 -3.64882 -6.04431
lowerback -3.40402 2.72964 1.90503
upperback -0.0587893 3.50038 3.57843
thorax 1.73614 1.75188 2.7805
lowerneck -21.3094 -4.82582 -13.5377
upperneck 20.1216 -5.68107 13.5439
head 10.8083 -2.06756 6.344
rclavicle 4.04527e-014 -1.59028e-014
rhumerus -14.784 29.1363 -81.9837
rradius 52.1395
rwrist -21.9856
rhand -32.2812 -26.0464
rfingers 7.12502
rthumb -5.5202 -55.9545
lclavicle 4.04527e-014 -1.59028e-014
lhumerus -57.6429 21.0029 56.2732
lradius 10.9057
lwrist -35.7445
lhand -6.48113 -24.1517
lfingers 7.12502
lthumb 19.3698 4.90356
rfemur 16.5952 2.78172 29.4629
rtibia -7.31528e-014
rfoot -7.75724 5.87683
rtoes -19.3505
lfemur -43.0475 -0.897344 -10.9654
ltibia 19.7779
lfoot -12.2471 10.0141
ltoes -8.29751
133
root 8.20743 16.4793 -5.08623 7.37155 -3.56002 -6.19942
lowerback -3.56114 2.71383 2.10351
upperback 0.0337039 3.45914 3.63043
thorax 1.92936 1.73222 2.73385
lowerneck -21.3604 -4.75811 -13.298
upperneck 20.2489 -5.56432 13.1348
head 10.8231 -2.04065 6.16822
rclavicle -4.63168e-014 -3.77691e-014
rhumerus -14.4796 29.0643 -81.7964
rradius 52.5109
rwrist -22.3571
rhand -32.3803 -24.8804
rfingers 7.12502
rthumb -5.61587 -54.7859
lclavicle -4.63168e-014 -3.77691e-014
lhumerus -59.3737 23.4395 52.0725
lradius 10.4749
lwrist -39.8104
lhand -8.05757 -24.7775
lfingers 7.12502
lthumb 17.8534 4.42297
rfemur 17.4763 2.7031 29.4258
rtibia 3.49861e-014
rfoot -7.25496 6.08764
rtoes -20.4498
lfemur -43.1038 -0.338262 -11.3556
ltibia 19.9389
lfoot -12.6864 9.71313
ltoes -6.84215
134
root 8.23267 16.4544 -4.85136 7.46737 -3.44858 -6.42304
lowerback -3.77898 2.75145 2.40556
upperback 0.0804501 3.48373 3.61927
thorax 2.11767 1.74708 2.56964
lowerneck -21.3073 -4.81011 -13.4158
upperneck 20.1845 -5.64136 13.2969
head 10.8115 -2.06811 6.23597
rclavicle 3.55328e-014 1.94809e-014
rhumerus -14.3833 28.5093 -81.731
rradius 53.0652
rwrist -22.401
rhand -31.9367 -23.047
rfingers 7.12502
rthumb -5.18762 -52.9635
lclavicle 3.55328e-014 1.94809e-014
lhumerus -59.0974 23.5318 51.8571
lradius 9.60753
lwrist -39.5924
lhand -9.83583 -25.3493
lfingers 7.12502
lthumb 16.1417 3.9985
rfemur 18.2026 2.63441 29.4586
rtibia 6.36111e-015
rfoot -6.38574 6.21448
rtoes -20.098
lfemur -43.3577 0.186899 -11.6227
ltibia 20.5386
lfoot -12.9801 9.17514
ltoes -7.7584
135
root 8.25346 16.424 -4.61528 7.58252 -3.36169 -6.54455
lowerback -3.78838 2.78243 2.44309
upperback -0.00953929 3.52618 3.66179
thorax 2.02876 1.7685 2.59209
lowerneck -21.4658 -4.93427 -13.673
upperneck 20.4018 -5.78235 13.4961
head 10.9596 -2.12602 6.34592
rclavicle 1.98785e-014 -1.15295e-014
rhumerus -14.6576 27.969 -81.7007
rradius 53.6615
rwrist -22.2557
rhand -30.9124 -21.223
rfingers 7.12502
rthumb -4.1985 -51.1614
lclavicle 1.98785e-014 -1.15295e-014
lhumerus -59.043 23.616 51.6916
lradius 8.91609
lwrist -39.3178
lhand -9.91628 -24.8257
lfingers 7.12502
lthumb 16.0643 4.52844
rfemur 18.8842 2.58413 29.3838
rtibia -5.40694e-014
rfoot -5.36027 6.21485
rtoes -18.0086
lfemur -43.67 1.19229 -12.324
ltibia 21.4702
lfoot -12.8709 8.14347
ltoes -9.05012
